name rise34.3697peak60.0498fall86.3158.mot
datacolumns 19
datarows 35
range 1.42999600000000 1.48665800000000
endheader
time	ground_force1_vx	ground_force1_vy	ground_force1_vz	ground_force1_px	ground_force1_py	ground_force1_pz	ground_force2_vx	ground_force2_vy	ground_force2_vz	ground_force2_px	ground_force2_py	ground_force2_pz	ground_torque1_x	ground_torque1_y	ground_torque1_z	ground_torque2_x	ground_torque2_y	ground_torque2_z	
1.42999600000000	-50.66678000000000	851.81863199999998	58.47400900000000	0.18976500000000	0.00000000000000	0.11521900000000	-5.05514400000000	26.30361300000000	5.83452000000000	0.43744600000000	0.00000000000000	-0.06016000000000	0.00000000000000	31.11170800000000	0.00000000000000	0.00000000000000	4.75930200000000	0.00000000000000	
1.43165700000000	-50.91211800000000	849.41358500000001	58.31572200000000	0.18913700000000	0.00000000000000	0.11520600000000	-5.92947700000000	32.12898100000000	6.89862700000000	0.44002400000000	0.00000000000000	-0.06089200000000	0.00000000000000	30.97761100000000	0.00000000000000	0.00000000000000	5.64475800000000	0.00000000000000	
1.43332600000000	-51.17289300000000	846.84971199999995	58.13582400000000	0.18850500000000	0.00000000000000	0.11519300000000	-6.75458700000000	38.12764800000000	7.92505700000000	0.44231900000000	0.00000000000000	-0.06157400000000	0.00000000000000	30.84133500000000	0.00000000000000	0.00000000000000	6.50334000000000	0.00000000000000	
1.43499500000000	-51.44950200000000	844.12708999999995	57.93411700000000	0.18787000000000	0.00000000000000	0.11517900000000	-7.50119800000000	44.17803700000000	8.88164400000000	0.44437300000000	0.00000000000000	-0.06221200000000	0.00000000000000	30.70304100000000	0.00000000000000	0.00000000000000	7.30834100000000	0.00000000000000	
1.43666100000000	-51.74227100000000	841.24589100000003	57.71043100000000	0.18723200000000	0.00000000000000	0.11516400000000	-8.14482800000000	50.17245900000000	9.74131400000000	0.44622400000000	0.00000000000000	-0.06281000000000	0.00000000000000	30.56288000000000	0.00000000000000	0.00000000000000	8.03719500000000	0.00000000000000	
1.43832800000000	-52.05145300000000	838.20637199999999	57.46462400000000	0.18659100000000	0.00000000000000	0.11515000000000	-8.66709400000000	56.02392100000000	10.48358400000000	0.44790200000000	0.00000000000000	-0.06337400000000	0.00000000000000	30.42099600000000	0.00000000000000	0.00000000000000	8.67274100000000	0.00000000000000	
1.43999900000000	-52.37722000000000	835.00887499999999	57.19658000000000	0.18594600000000	0.00000000000000	0.11513400000000	-9.05633900000000	61.67028400000000	11.09531100000000	0.44943100000000	0.00000000000000	-0.06390700000000	0.00000000000000	30.27752200000000	0.00000000000000	0.00000000000000	9.20388200000000	0.00000000000000	
1.44166300000000	-52.71966500000000	831.65382000000000	56.90621200000000	0.18529900000000	0.00000000000000	0.11511800000000	-9.30762500000000	67.07572800000000	11.57073700000000	0.45083300000000	0.00000000000000	-0.06441200000000	0.00000000000000	30.13258000000000	0.00000000000000	0.00000000000000	9.62563900000000	0.00000000000000	
1.44332900000000	-53.07879900000000	828.14170100000001	56.59346000000000	0.18465000000000	0.00000000000000	0.11510100000000	-9.42217100000000	72.22981700000000	11.91091000000000	0.45212600000000	0.00000000000000	-0.06489200000000	0.00000000000000	29.98628100000000	0.00000000000000	0.00000000000000	9.93870100000000	0.00000000000000	
1.44499200000000	-53.45454900000000	824.47308699999996	56.25829100000000	0.18399700000000	0.00000000000000	0.11508300000000	-9.40639400000000	77.14463499999999	12.12265600000000	0.45332400000000	0.00000000000000	-0.06534900000000	0.00000000000000	29.83872200000000	0.00000000000000	0.00000000000000	10.14857900000000	0.00000000000000	
1.44666500000000	-53.84675600000000	820.64861099999996	55.90070200000000	0.18334300000000	0.00000000000000	0.11506400000000	-9.27067700000000	81.85055300000000	12.21724700000000	0.45444000000000	0.00000000000000	-0.06578500000000	0.00000000000000	29.68999100000000	0.00000000000000	0.00000000000000	10.26450700000000	0.00000000000000	
1.44832900000000	-54.25517200000000	816.66897300000005	55.52071500000000	0.18268600000000	0.00000000000000	0.11504400000000	-9.02803600000000	86.39124000000000	12.20893100000000	0.45548500000000	0.00000000000000	-0.06620300000000	0.00000000000000	29.54015800000000	0.00000000000000	0.00000000000000	10.29823500000000	0.00000000000000	
1.44999500000000	-54.67946100000000	812.53493300000002	55.11838300000000	0.18202700000000	0.00000000000000	0.11502200000000	-8.69280000000000	90.81843100000000	12.11347500000000	0.45646700000000	0.00000000000000	-0.06660200000000	0.00000000000000	29.38928100000000	0.00000000000000	0.00000000000000	10.26281100000000	0.00000000000000	
1.45166500000000	-55.11919700000000	808.24730899999997	54.69378600000000	0.18136600000000	0.00000000000000	0.11500000000000	-8.27941100000000	95.18694700000000	11.94683900000000	0.45739500000000	0.00000000000000	-0.06698500000000	0.00000000000000	29.23740200000000	0.00000000000000	0.00000000000000	10.17147800000000	0.00000000000000	
1.45332500000000	-55.57386200000000	803.80697599999996	54.24703000000000	0.18070400000000	0.00000000000000	0.11497600000000	-7.80142900000000	99.55030400000000	11.72404900000000	0.45827400000000	0.00000000000000	-0.06735400000000	0.00000000000000	29.08454900000000	0.00000000000000	0.00000000000000	10.03673200000000	0.00000000000000	
1.45499300000000	-56.04284700000000	799.21486000000004	53.77825400000000	0.18004000000000	0.00000000000000	0.11495000000000	-7.27076700000000	103.95716700000000	11.45834200000000	0.45911100000000	0.00000000000000	-0.06770800000000	0.00000000000000	28.93073200000000	0.00000000000000	0.00000000000000	9.86960700000000	0.00000000000000	
1.45666600000000	-56.52545300000000	794.47193800000002	53.28762000000000	0.17937500000000	0.00000000000000	0.11492300000000	-6.69719000000000	108.44875800000000	11.16059400000000	0.45990900000000	0.00000000000000	-0.06804900000000	0.00000000000000	28.77594600000000	0.00000000000000	0.00000000000000	9.67918400000000	0.00000000000000	
1.45832900000000	-57.02088700000000	789.57923500000004	52.77532200000000	0.17871000000000	0.00000000000000	0.11489400000000	-6.08806800000000	113.05726600000000	10.83901800000000	0.46067200000000	0.00000000000000	-0.06837800000000	0.00000000000000	28.62017100000000	0.00000000000000	0.00000000000000	9.47234200000000	0.00000000000000	
1.45999100000000	-57.52826500000000	784.53782200000001	52.24158000000000	0.17804300000000	0.00000000000000	0.11486300000000	-5.44835100000000	117.80519000000000	10.49912200000000	0.46140400000000	0.00000000000000	-0.06869500000000	0.00000000000000	28.46336700000000	0.00000000000000	0.00000000000000	9.25370700000000	0.00000000000000	
1.46166400000000	-58.04661200000000	779.34881600000006	51.68664400000000	0.17737600000000	0.00000000000000	0.11483000000000	-4.78072600000000	122.70549600000000	10.14386500000000	0.46210700000000	0.00000000000000	-0.06900100000000	0.00000000000000	28.30547900000000	0.00000000000000	0.00000000000000	9.02578400000000	0.00000000000000	
1.46333000000000	-58.57486300000000	774.01337699999999	51.11079200000000	0.17670900000000	0.00000000000000	0.11479500000000	-4.08592600000000	127.76242800000000	9.77398600000000	0.46278300000000	0.00000000000000	-0.06929600000000	0.00000000000000	28.14643700000000	0.00000000000000	0.00000000000000	8.78921600000000	0.00000000000000	
1.46499100000000	-59.11186500000000	768.53270399999997	50.51432900000000	0.17604200000000	0.00000000000000	0.11475900000000	-3.36311800000000	132.97279399999999	9.38842600000000	0.46343300000000	0.00000000000000	-0.06958200000000	0.00000000000000	27.98615000000000	0.00000000000000	0.00000000000000	8.54313400000000	0.00000000000000	
1.46666100000000	-59.65637700000000	762.90803900000003	49.89759100000000	0.17537500000000	0.00000000000000	0.11471900000000	-2.61034600000000	138.32754299999999	8.98480900000000	0.46406000000000	0.00000000000000	-0.06985800000000	0.00000000000000	27.82451400000000	0.00000000000000	0.00000000000000	8.28556100000000	0.00000000000000	
1.46832700000000	-60.20707400000000	757.14066500000001	49.26094100000000	0.17470900000000	0.00000000000000	0.11467800000000	-1.82497900000000	143.81345500000000	8.55993200000000	0.46466400000000	0.00000000000000	-0.07012500000000	0.00000000000000	27.66140700000000	0.00000000000000	0.00000000000000	8.01380800000000	0.00000000000000	
1.46999200000000	-60.76254700000000	751.23190099999999	48.60477000000000	0.17404300000000	0.00000000000000	0.11463400000000	-1.00411700000000	149.41481099999999	8.11022900000000	0.46524500000000	0.00000000000000	-0.07038300000000	0.00000000000000	27.49669300000000	0.00000000000000	0.00000000000000	7.72486800000000	0.00000000000000	
1.47165700000000	-61.32130800000000	745.18310799999995	47.92950000000000	0.17337700000000	0.00000000000000	0.11458800000000	-0.14496200000000	155.11490900000001	7.63217000000000	0.46580400000000	0.00000000000000	-0.07063200000000	0.00000000000000	27.33022000000000	0.00000000000000	0.00000000000000	7.41574500000000	0.00000000000000	
1.47333100000000	-61.88179200000000	738.99568499999998	47.23557900000000	0.17271300000000	0.00000000000000	0.11454000000000	0.75490000000000	160.89735400000001	7.12259000000000	0.46634100000000	0.00000000000000	-0.07087300000000	0.00000000000000	27.16181900000000	0.00000000000000	0.00000000000000	7.08372900000000	0.00000000000000	
1.47499600000000	-62.44235800000000	732.67107199999998	46.52348400000000	0.17204900000000	0.00000000000000	0.11448900000000	1.69728200000000	166.74707100000001	6.57892800000000	0.46685600000000	0.00000000000000	-0.07110700000000	0.00000000000000	26.99131100000000	0.00000000000000	0.00000000000000	6.72660100000000	0.00000000000000	
1.47666100000000	-63.00129900000000	726.21074899999996	45.79372200000000	0.17138700000000	0.00000000000000	0.11443500000000	2.68327000000000	172.65101300000001	5.99938100000000	0.46734900000000	0.00000000000000	-0.07133200000000	0.00000000000000	26.81850200000000	0.00000000000000	0.00000000000000	6.34276000000000	0.00000000000000	
1.47832500000000	-63.55684100000000	719.61624300000005	45.04682700000000	0.17072500000000	0.00000000000000	0.11437800000000	3.71316100000000	178.59858299999999	5.38298000000000	0.46782000000000	0.00000000000000	-0.07155000000000	0.00000000000000	26.64318500000000	0.00000000000000	0.00000000000000	5.93129000000000	0.00000000000000	
1.47999600000000	-64.10714600000000	712.88912400000004	44.28336000000000	0.17006500000000	0.00000000000000	0.11431900000000	4.78647100000000	184.58178100000001	4.72958600000000	0.46826800000000	0.00000000000000	-0.07176000000000	0.00000000000000	26.46514300000000	0.00000000000000	0.00000000000000	5.49196100000000	0.00000000000000	
1.48166200000000	-64.65032400000000	706.03101400000003	43.50391200000000	0.16940600000000	0.00000000000000	0.11425700000000	5.90198800000000	190.59514100000001	4.03983700000000	0.46869200000000	0.00000000000000	-0.07196300000000	0.00000000000000	26.28415000000000	0.00000000000000	0.00000000000000	5.02518100000000	0.00000000000000	
1.48332900000000	-65.18443000000001	699.04358900000000	42.70910000000000	0.16874800000000	0.00000000000000	0.11419200000000	7.05787400000000	196.63548299999999	3.31504900000000	0.46909200000000	0.00000000000000	-0.07215800000000	0.00000000000000	26.09996700000000	0.00000000000000	0.00000000000000	4.53192600000000	0.00000000000000	
1.48499500000000	-65.70747299999999	691.92858400000000	41.89956900000000	0.16809200000000	0.00000000000000	0.11412400000000	8.25177500000000	202.70155299999999	2.55709400000000	0.46946800000000	0.00000000000000	-0.07234700000000	0.00000000000000	25.91235000000000	0.00000000000000	0.00000000000000	4.01362800000000	0.00000000000000	
1.48665800000000	-66.21742300000000	684.68780000000004	41.07598900000000	0.16743700000000	0.00000000000000	0.11405300000000	9.48095000000000	208.79359099999999	1.76826000000000	0.46981800000000	0.00000000000000	-0.07252800000000	0.00000000000000	25.72104900000000	0.00000000000000	0.00000000000000	3.47206700000000	0.00000000000000	
